<svg width="415" height="415" viewBox="0 0 415 415" fill="none" xmlns="http://www.w3.org/2000/svg">
<rect width="415" height="415" rx="108.3" fill="url(#paint0_linear_511_10)"/>
<path d="M189.773 223.96C191.359 223.96 192.153 226.107 192.153 230.4C192.153 232.733 191.173 235.58 189.212 238.94C187.253 242.207 184.686 245.24 181.513 248.04C178.433 250.747 174.979 252.987 171.153 254.76C167.326 256.533 163.266 257.42 158.973 257.42C154.773 257.42 151.459 256.067 149.033 253.36C146.699 250.56 145.533 247.48 145.533 244.12C145.533 240.667 146.093 236.793 147.213 232.5C148.333 228.207 149.546 223.727 150.853 219.06C154.399 206.647 156.219 197.92 156.313 192.88C156.313 190.733 156.033 189.1 155.473 187.98C154.913 186.767 153.839 186.16 152.253 186.16C149.453 186.16 146.466 187.84 143.293 191.2C140.119 194.56 137.133 198.853 134.333 204.08C127.893 216.027 124.486 227.693 124.113 239.08C124.299 240.387 124.486 241.693 124.673 243C124.859 244.307 124.952 245.707 124.952 247.2C124.952 250.187 123.459 252.94 120.473 255.46C117.579 257.887 114.313 259.1 110.673 259.1C108.526 259.1 106.939 258.073 105.913 256.02C104.886 253.873 104.373 251.26 104.373 248.18C104.373 245.1 105.073 240.9 106.473 235.58C107.873 230.26 109.413 224.613 111.093 218.64C115.573 202.867 117.859 191.107 117.953 183.36C117.953 179.44 117.439 176.36 116.413 174.12C115.479 171.88 113.613 170.76 110.813 170.76C105.773 170.76 100.779 174.353 95.8325 181.54C90.8858 188.727 86.4525 199.88 82.5325 215C81.5058 218.92 80.7125 222.327 80.1525 225.22L80.0125 227.88C81.7858 236.467 82.6725 242.067 82.6725 244.68C82.6725 250.093 80.7592 253.733 76.9325 255.6C75.1592 256.44 73.4325 257.233 71.7525 257.98C70.1658 258.727 68.4392 259.1 66.5725 259.1C61.9058 259.1 59.5725 254.667 59.5725 245.8C59.5725 236.84 62.0458 219.387 66.9925 193.44C68.7658 184.107 69.6525 178.88 69.6525 177.76C69.6525 170.2 67.7392 166.42 63.9125 166.42C62.6058 166.42 61.3925 166.793 60.2725 167.54C59.2458 168.287 58.1725 169.08 57.0525 169.92C56.0258 170.76 54.9525 171.553 53.8325 172.3C52.7125 173.047 51.4058 173.42 49.9125 173.42C48.5125 173.42 47.8125 172.16 47.8125 169.64C47.8125 164.507 50.1925 160.307 54.9525 157.04C59.5258 153.68 65.0792 152 71.6125 152C80.0125 152 84.9592 155.92 86.4525 163.76C86.8258 166.093 87.1058 168.567 87.2925 171.18C94.1992 158.207 102.926 151.72 113.473 151.72C124.953 151.72 131.533 157.227 133.213 168.24C133.773 171.413 134.006 174.82 133.913 178.46V179.58C139.979 171.18 147.166 166.98 155.473 166.98C167.233 166.98 173.113 174.073 173.113 188.26C173.113 194.42 172.133 201.653 170.173 209.96C168.306 218.173 166.906 224.1 165.973 227.74C165.133 231.287 164.713 234.04 164.713 236C164.713 239.547 165.926 241.32 168.353 241.32C170.873 241.32 176.799 236.467 186.133 226.76C187.813 224.893 189.026 223.96 189.773 223.96ZM271.137 223.96C272.817 223.96 273.657 226.107 273.657 230.4C273.657 232.733 272.677 235.58 270.717 238.94C268.757 242.207 266.19 245.24 263.017 248.04C259.937 250.747 256.483 252.987 252.657 254.76C248.83 256.533 245.097 257.42 241.457 257.42C236.51 257.42 233.197 253.08 231.517 244.4C229.09 248.413 225.917 251.727 221.997 254.34C218.077 256.86 212.803 258.12 206.177 258.12C199.643 258.12 194.37 256.067 190.357 251.96C186.343 247.853 184.383 242.86 184.477 236.98C184.477 221.113 189.75 208.607 200.297 199.46C204.777 195.633 208.93 193.113 212.757 191.9C216.677 190.687 220.783 190.08 225.077 190.08C229.37 190.08 232.87 190.827 235.577 192.32C236.883 189.613 238.377 188.26 240.057 188.26C243.323 188.26 246.403 189.707 249.297 192.6C252.283 195.4 253.777 198.06 253.777 200.58C252.47 203.66 250.557 207.347 248.037 211.64C247.29 215.933 246.917 221.953 246.917 229.7C246.917 237.447 247.897 241.32 249.857 241.32C252.283 241.32 258.163 236.467 267.497 226.76C269.177 224.893 270.39 223.96 271.137 223.96ZM205.057 232.36C205.057 239.547 207.717 243.14 213.037 243.14C218.73 243.047 223.443 240.013 227.177 234.04C228.483 231.987 229.557 229.467 230.397 226.48C230.397 216.027 231.33 207.067 233.197 199.6C225.637 201.093 219.057 204.733 213.457 210.52C207.857 216.307 205.057 223.587 205.057 232.36ZM287.101 233.48L287.941 250.56C287.941 252.8 286.774 254.807 284.441 256.58C282.108 258.353 278.934 259.24 274.921 259.24C272.588 259.24 270.954 258.027 270.021 255.6C269.181 253.173 268.761 249.627 268.761 244.96C268.761 235.16 269.228 227.507 270.161 222C271.188 216.4 273.148 210.753 276.041 205.06C271.748 200.953 269.601 197.407 269.601 194.42C269.601 188.167 272.961 185.04 279.681 185.04C283.134 185.04 286.168 186.86 288.781 190.5C290.648 193.02 292.001 195.96 292.841 199.32C294.148 199.787 295.781 200.02 297.741 200.02C300.448 200.02 303.574 199.133 307.121 197.36L310.761 195.54C311.881 194.98 312.861 194.7 313.701 194.7C316.408 194.7 319.114 198.667 321.821 206.6C320.981 210.24 320.048 213.74 319.021 217.1C318.088 220.46 316.968 224.52 315.661 229.28C314.354 234.04 313.654 237.26 313.561 238.94C313.561 240.527 314.074 241.32 315.101 241.32C316.501 241.32 318.228 240.433 320.281 238.66C322.334 236.887 324.388 234.973 326.441 232.92C328.494 230.773 330.361 228.813 332.041 227.04C333.814 225.267 335.028 224.38 335.681 224.38C336.988 224.38 337.641 225.967 337.641 229.14C337.641 235.58 334.794 241.927 329.101 248.18C323.501 254.433 317.061 257.513 309.781 257.42C305.488 257.42 302.268 255.693 300.121 252.24C297.974 248.787 296.854 244.587 296.761 239.64C296.761 229.84 298.954 220.553 303.341 211.78C301.288 212.62 298.954 213.04 296.341 213.04C293.821 213.04 292.001 212.947 290.881 212.76C290.041 216.307 289.201 219.9 288.361 223.54C287.521 227.087 287.101 230.4 287.101 233.48ZM347.445 257.42C338.112 257.42 333.445 248.693 333.445 231.24C333.445 221.72 334.612 213.087 336.945 205.34C340.585 193.393 344.692 187.42 349.265 187.42C351.972 187.42 354.119 189.24 355.705 192.88C357.012 195.68 357.619 198.433 357.525 201.14C357.525 204.873 356.405 211.453 354.165 220.88C352.019 229.093 350.945 234.18 350.945 236.14C350.945 238.1 351.412 239.453 352.345 240.2C353.372 240.947 354.539 241.32 355.845 241.32C357.245 241.32 358.972 240.433 361.025 238.66C363.079 236.887 365.132 234.973 367.185 232.92C369.239 230.773 371.105 228.813 372.785 227.04C374.559 225.267 375.772 224.38 376.425 224.38C377.732 224.38 378.385 225.967 378.385 229.14C378.385 235.673 375.072 242.067 368.445 248.32C361.912 254.48 354.912 257.513 347.445 257.42ZM353.185 176.08C350.665 172.347 349.405 168.333 349.405 164.04C349.405 159.747 350.059 156.2 351.365 153.4C352.765 150.507 354.072 148.407 355.285 147.1C356.499 145.7 357.899 145 359.485 145C362.099 145 364.479 146.96 366.625 150.88C368.772 154.707 369.845 157.927 369.845 160.54C369.845 165.393 368.119 169.22 364.665 172.02C361.305 174.727 357.479 176.08 353.185 176.08Z" fill="white"/>
<defs>
<linearGradient id="paint0_linear_511_10" x1="207.5" y1="0" x2="207.5" y2="415" gradientUnits="userSpaceOnUse">
<stop stop-color="#94D8FF"/>
<stop offset="1" stop-color="#007AAE"/>
</linearGradient>
</defs>
</svg>
